<svg xmlns="http://www.w3.org/2000/svg" viewBox="0 0 256 256" role="img" aria-label="Аватар по умолчанию">
 <defs>
  <linearGradient id="bg" x1="0" y1="0" x2="1" y2="1"><stop stop-color="#172a3a"/><stop offset="1" stop-color="#294c68"/></linearGradient>
  <radialGradient id="skin" cx="50%" cy="36%" r="68%"><stop stop-color="#91b7c8"/><stop offset="1" stop-color="#52788d"/></radialGradient>
 </defs>
 <rect width="256" height="256" rx="38" fill="url(#bg)"/>
 <path d="M128 31c-47 0-76 37-70 86 5 41 31 75 70 75s65-34 70-75c6-49-23-86-70-86Z" fill="url(#skin)"/>
 <path d="M36 256c8-47 42-73 92-73s84 26 92 73" fill="#41677d"/>
 <ellipse cx="94" cy="112" rx="27" ry="18" fill="#10212d" transform="rotate(11 94 112)"/>
 <ellipse cx="162" cy="112" rx="27" ry="18" fill="#10212d" transform="rotate(-11 162 112)"/>
 <ellipse cx="94" cy="111" rx="7" ry="6" fill="#7ee4ff"/><ellipse cx="162" cy="111" rx="7" ry="6" fill="#7ee4ff"/>
 <path d="M118 142c7 5 13 5 20 0" fill="none" stroke="#27495d" stroke-width="5" stroke-linecap="round"/>
 <path d="M105 165c15 8 31 8 46 0" fill="none" stroke="#27495d" stroke-width="5" stroke-linecap="round"/>
</svg>
